<?xml version="1.0" encoding="utf-8"?>
<!-- Generator: Adobe Illustrator 21.0.0, SVG Export Plug-In . SVG Version: 6.00 Build 0)  -->
<svg version="1.1" id="Layer_1" xmlns="http://www.w3.org/2000/svg" xmlns:xlink="http://www.w3.org/1999/xlink" x="0px" y="0px"
	 viewBox="0 0 3276.6 182.3" style="enable-background:new 0 0 3276.6 182.3;" xml:space="preserve">
<style type="text/css">
	.st0{fill:#333333;}
</style>
<g>
	<polygon class="st0" points="2143.3,50.1 2143.3,137.1 2118.3,137.1 2118.3,91.9 2061.3,91.9 2061.3,123.9 2004.4,123.9 
		2004.4,153.1 1959.2,153.1 1959.2,56.4 1919.1,56.4 1919.1,116.2 1899.1,116.2 1899.1,153.1 1887.6,153.1 1887.6,87 1816,87 
		1816,154.2 1779.3,154.2 1779.3,87 1750,87 1750,153.1 1736.3,153.1 1736.3,128.9 1707,128.9 1707,153.1 1689.9,153.1 1689.9,87 
		1635.6,87 1635.6,153.1 1627,153.1 1627,87 1597.7,87 1597.7,153.1 1591.1,153.1 1591.1,0 1561.8,0 1561.8,154.2 1526.8,154.2 
		1526.8,50.1 1485,50.1 1485,75.5 1443.1,75.5 1443.1,112.4 1416.8,112.4 1416.8,56.4 1371.9,56.4 1371.9,42.6 1300.9,42.6 
		1300.9,56.4 1249.3,56.4 1249.3,91.9 1229.3,91.9 1229.3,71 1196.8,71 1196.8,50.1 1092.2,50.1 1092.2,182.3 2184.4,182.3 
		2184.4,50.1 	"/>
	<polygon class="st0" points="3235.5,50.1 3235.5,137.1 3210.5,137.1 3210.5,91.9 3153.5,91.9 3153.5,123.9 3096.6,123.9 
		3096.6,153.1 3051.4,153.1 3051.4,56.4 3011.3,56.4 3011.3,116.2 2991.3,116.2 2991.3,153.1 2979.8,153.1 2979.8,87 2908.2,87 
		2908.2,154.2 2871.5,154.2 2871.5,87 2842.2,87 2842.2,153.1 2828.6,153.1 2828.6,128.9 2799.2,128.9 2799.2,153.1 2782.1,153.1 
		2782.1,87 2727.8,87 2727.8,153.1 2719.2,153.1 2719.2,87 2689.9,87 2689.9,153.1 2683.3,153.1 2683.3,0 2654,0 2654,154.2 
		2619,154.2 2619,50.1 2577.2,50.1 2577.2,75.5 2535.3,75.5 2535.3,112.4 2509,112.4 2509,56.4 2464.1,56.4 2464.1,42.6 
		2393.1,42.6 2393.1,56.4 2341.5,56.4 2341.5,91.9 2321.5,91.9 2321.5,71 2289,71 2289,50.1 2184.4,50.1 2184.4,182.3 3276.6,182.3 
		3276.6,50.1 	"/>
	<polygon class="st0" points="1051.1,50.1 1051.1,137.1 1026.1,137.1 1026.1,91.9 969.1,91.9 969.1,123.9 912.2,123.9 912.2,153.1 
		867,153.1 867,56.4 826.9,56.4 826.9,116.2 806.9,116.2 806.9,153.1 795.4,153.1 795.4,87 723.8,87 723.8,154.2 687.1,154.2 
		687.1,87 657.8,87 657.8,153.1 644.1,153.1 644.1,128.9 614.8,128.9 614.8,153.1 597.7,153.1 597.7,87 543.4,87 543.4,153.1 
		534.8,153.1 534.8,87 505.5,87 505.5,153.1 498.9,153.1 498.9,0 469.6,0 469.6,154.2 434.6,154.2 434.6,50.1 392.8,50.1 
		392.8,75.5 350.9,75.5 350.9,112.4 324.6,112.4 324.6,56.4 279.7,56.4 279.7,42.6 208.7,42.6 208.7,56.4 157.1,56.4 157.1,91.9 
		137.1,91.9 137.1,71 104.6,71 104.6,50.1 0,50.1 0,182.3 1092.2,182.3 1092.2,50.1 	"/>
</g>
</svg>
