<?xml version="1.0" encoding="utf-8"?>
<!-- Generator: Adobe Illustrator 21.0.0, SVG Export Plug-In . SVG Version: 6.00 Build 0)  -->
<svg version="1.1" id="Layer_1" xmlns="http://www.w3.org/2000/svg" xmlns:xlink="http://www.w3.org/1999/xlink" x="0px" y="0px"
	 viewBox="0 0 3276.6 311.8" style="enable-background:new 0 0 3276.6 311.8;" xml:space="preserve">
<style type="text/css">
	.st0{fill:#4D4D4D;}
</style>
<g>
	<polygon class="st0" points="2123.6,-1.1 2123.6,84 2104.1,84 2104.1,236.6 2066.4,236.6 2066.4,143 2029.9,143 2029.9,182.1 
		2018.3,182.1 2018.3,275.9 1972.9,275.9 1972.9,129 1910.2,129 1910.2,94.3 1840.7,94.3 1840.7,138.6 1784.4,138.6 1784.4,275.9 
		1724.1,275.9 1724.1,123.1 1682.6,123.1 1682.6,275.9 1660.4,275.9 1660.4,61.2 1642.8,61.2 1642.8,0 1601.2,0 1601.2,275.9 
		1584.5,275.9 1584.5,74.4 1519.4,74.4 1519.4,275.9 1505.4,275.9 1505.4,102.5 1440.3,102.5 1440.3,275.9 1402.6,275.9 
		1402.6,92.9 1331,92.9 1331,126 1264.1,126 1264.1,275.9 1210.1,275.9 1210.1,139.3 1138.5,139.3 1138.5,275.9 1130.1,275.9 
		1130.1,87.7 1092.2,87.7 1092.2,311.8 2184.4,311.8 2184.4,-1.1 	"/>
	<polygon class="st0" points="3215.8,-1.1 3215.8,84 3196.3,84 3196.3,236.6 3158.6,236.6 3158.6,143 3122.1,143 3122.1,182.1 
		3110.5,182.1 3110.5,275.9 3065.1,275.9 3065.1,129 3002.4,129 3002.4,94.3 2932.9,94.3 2932.9,138.6 2876.6,138.6 2876.6,275.9 
		2816.4,275.9 2816.4,123.1 2774.8,123.1 2774.8,275.9 2752.6,275.9 2752.6,61.2 2735,61.2 2735,0 2693.4,0 2693.4,275.9 
		2676.7,275.9 2676.7,74.4 2611.6,74.4 2611.6,275.9 2597.6,275.9 2597.6,102.5 2532.5,102.5 2532.5,275.9 2494.8,275.9 
		2494.8,92.9 2423.2,92.9 2423.2,126 2356.3,126 2356.3,275.9 2302.3,275.9 2302.3,139.3 2230.7,139.3 2230.7,275.9 2222.3,275.9 
		2222.3,87.7 2184.4,87.7 2184.4,311.8 3276.6,311.8 3276.6,-1.1 	"/>
	<polygon class="st0" points="1031.4,-1.1 1031.4,84 1011.9,84 1011.9,236.6 974.2,236.6 974.2,143 937.7,143 937.7,182.1 
		926.1,182.1 926.1,275.9 880.7,275.9 880.7,129 818,129 818,94.3 748.5,94.3 748.5,138.6 692.2,138.6 692.2,275.9 631.9,275.9 
		631.9,123.1 590.4,123.1 590.4,275.9 568.2,275.9 568.2,61.2 550.6,61.2 550.6,0 509,0 509,275.9 492.3,275.9 492.3,74.4 
		427.2,74.4 427.2,275.9 413.2,275.9 413.2,102.5 348.1,102.5 348.1,275.9 310.4,275.9 310.4,92.9 238.8,92.9 238.8,126 171.9,126 
		171.9,275.9 117.9,275.9 117.9,139.3 46.3,139.3 46.3,275.9 37.9,275.9 37.9,87.7 0,87.7 0,311.8 1092.2,311.8 1092.2,-1.1 	"/>
</g>
</svg>
