<?xml version="1.0" encoding="utf-8"?>
<!-- Generator: Adobe Illustrator 21.0.0, SVG Export Plug-In . SVG Version: 6.00 Build 0)  -->
<svg version="1.1" id="Layer_1" xmlns="http://www.w3.org/2000/svg" xmlns:xlink="http://www.w3.org/1999/xlink" x="0px" y="0px"
	 viewBox="0 0 3276.6 543.3" style="enable-background:new 0 0 3276.6 543.3;" xml:space="preserve">
<style type="text/css">
	.st0{fill:#808080;}
</style>
<g>
	<path class="st0" d="M2152.9,228v203.3h-5.9V293.7h-32.3v137.5h-52V213.7H2024v217.5h-8.2V169.1c0-14.7-8-26.6-18.2-27.5l-1.2-69.6
		l-1.2,69.6c-10.1,0.9-18.2,12.8-18.2,27.5v262.1h-50.4V235.4h-38.7v195.8h-31.6V277.3h-44.2v153.9h-25V163.5h-16.7l-1.4-83.8
		l-1.4,83.8h-22.3v53.9h-27.6l-13.7-33.7l-13.7,33.7h-2.8v-31.8h-39v245.7h-7.6V320.9h-17.9v-33.4h-29.8v-23.2h-31.8v38.5h-14.3
		V111.3H1537c-3.2-11.6-10.9-20-20-21.1L1515.5,0l-1.5,90.2c-9.4,0.7-17.3,9.2-20.6,21.1h-8.1v319.9h-7.6v-197h-37v197h-11.9v-197
		h-26.1l-25.6-63.2l-25.6,63.2h-25.2v197h-6V330.4h-40.6v100.8h-8.7v-79.7h-20.3v79.7h-18.3V295.9h-30.6v135.3h-2v-88.9h-20.3v-11.9
		h-20.3v100.8h-6V279.6h-28.6v-45.3H1104l-1.7-97.8l-1.7,97.8h-8.5v309.1h1092.2V228H2152.9z"/>
	<path class="st0" d="M3245.1,228v203.3h-5.9V293.7h-32.3v137.5h-52V213.7h-38.7v217.5h-8.2V169.1c0-14.7-8-26.6-18.2-27.5
		l-1.2-69.6l-1.2,69.6c-10.1,0.9-18.2,12.8-18.2,27.5v262.1h-50.4V235.4h-38.7v195.8h-31.6V277.3h-44.2v153.9h-25V163.5h-16.7
		l-1.4-83.8l-1.4,83.8h-22.3v53.9h-27.6l-13.7-33.7l-13.7,33.7h-2.8v-31.8h-39v245.7h-7.6V320.9h-17.9v-33.4h-29.8v-23.2h-31.8v38.5
		h-14.3V111.3h-10.3c-3.2-11.6-10.9-20-20-21.1L2607.7,0l-1.5,90.2c-9.4,0.7-17.3,9.2-20.6,21.1h-8.1v319.9h-7.6v-197h-37v197H2521
		v-197h-26.1l-25.6-63.2l-25.6,63.2h-25.2v197h-6V330.4h-40.6v100.8h-8.7v-79.7h-20.3v79.7h-18.3V295.9H2294v135.3h-2v-88.9h-20.3
		v-11.9h-20.3v100.8h-6V279.6h-28.6v-45.3h-20.7l-1.7-97.8l-1.7,97.8h-8.5v309.1h1092.2V228H3245.1z"/>
	<path class="st0" d="M1060.6,228v203.3h-5.9V293.7h-32.3v137.5h-52V213.7h-38.7v217.5h-8.2V169.1c0-14.7-8-26.6-18.2-27.5L904.2,72
		l-1.2,69.6c-10.1,0.9-18.2,12.8-18.2,27.5v262.1h-50.4V235.4h-38.7v195.8h-31.6V277.3h-44.2v153.9h-25V163.5h-16.7l-1.4-83.8
		l-1.4,83.8h-22.3v53.9h-27.6l-13.7-33.7l-13.7,33.7h-2.8v-31.8h-39v245.7h-7.6V320.9H531v-33.4h-29.8v-23.2h-31.8v38.5h-14.3V111.3
		h-10.3c-3.2-11.6-10.9-20-20-21.1L423.3,0l-1.5,90.2c-9.4,0.7-17.3,9.2-20.6,21.1h-8.1v319.9h-7.6v-197h-37v197h-11.9v-197h-26.1
		L284.9,171l-25.6,63.2H234v197h-6V330.4h-40.6v100.8h-8.7v-79.7h-20.3v79.7h-18.3V295.9h-30.6v135.3h-2v-88.9H87.3v-11.9H67.1
		v100.8h-6V279.6H32.5v-45.3H11.8l-1.7-97.8l-1.7,97.8H0v309.1h1092.2V228H1060.6z"/>
</g>
</svg>
