<?xml version="1.0" encoding="utf-8"?>
<!-- Generator: Adobe Illustrator 21.0.0, SVG Export Plug-In . SVG Version: 6.00 Build 0)  -->
<svg version="1.1" id="Layer_1" xmlns="http://www.w3.org/2000/svg" xmlns:xlink="http://www.w3.org/1999/xlink" x="0px" y="0px"
	 viewBox="0 0 3276.6 597.1" style="enable-background:new 0 0 3276.6 597.1;" xml:space="preserve">
<style type="text/css">
	.st0{fill:#B2B2B2;}
</style>
<g>
	<polygon class="st0" points="2097.9,391.7 2097.9,218.6 2072.8,218.6 2072.8,71.1 2009.9,71.1 2009.9,391.7 1981.8,391.7 
		1981.8,218.6 1932.3,218.6 1932.3,144.8 1900.9,144.8 1900.9,165.9 1887.6,165.9 1887.6,175.1 1871.8,175.1 1871.8,190.9 
		1863,190.9 1863,391.7 1853,391.7 1853,144.8 1806.6,144.8 1806.6,391.7 1799.8,391.7 1799.8,259.4 1740.1,259.4 1740.1,391.7 
		1736.9,391.7 1736.9,44.8 1677.2,44.8 1677.2,391.7 1660.8,391.7 1660.8,133.6 1601.1,73.1 1601.1,242.3 1584.6,242.3 
		1584.6,205.4 1545.6,205.4 1545.6,391.7 1466.6,391.7 1466.6,103.4 1404.4,103.4 1404.4,391.7 1337.2,391.7 1337.2,0 1275,0 
		1275,210.7 1255.1,210.7 1255.1,160.6 1192.9,160.6 1192.9,259.4 1172.9,259.4 1172.9,391.7 1155.3,391.7 1155.3,144.8 
		1095.6,144.8 1095.6,597.1 2187.8,597.1 2187.8,391.7 	"/>
	<polygon class="st0" points="3183.3,391.7 3183.3,218.6 3158.2,218.6 3158.2,71.1 3095.3,71.1 3095.3,391.7 3067.2,391.7 
		3067.2,218.6 3017.7,218.6 3017.7,144.8 2986.3,144.8 2986.3,165.9 2973,165.9 2973,175.1 2957.2,175.1 2957.2,190.9 2948.4,190.9 
		2948.4,391.7 2938.4,391.7 2938.4,144.8 2892,144.8 2892,391.7 2885.2,391.7 2885.2,259.4 2825.5,259.4 2825.5,391.7 2822.3,391.7 
		2822.3,44.8 2762.6,44.8 2762.6,391.7 2746.2,391.7 2746.2,133.6 2686.5,73.1 2686.5,242.3 2670,242.3 2670,205.4 2631,205.4 
		2631,391.7 2552,391.7 2552,103.4 2489.8,103.4 2489.8,391.7 2422.6,391.7 2422.6,0 2360.4,0 2360.4,210.7 2340.5,210.7 
		2340.5,160.6 2278.3,160.6 2278.3,259.4 2258.3,259.4 2258.3,391.7 2240.7,391.7 2240.7,144.8 2181,144.8 2181,597.1 3273.2,597.1 
		3273.2,391.7 	"/>
	<polygon class="st0" points="1005.7,391.7 1005.7,218.6 980.6,218.6 980.6,71.1 917.7,71.1 917.7,391.7 889.6,391.7 889.6,218.6 
		840.1,218.6 840.1,144.8 808.7,144.8 808.7,165.9 795.4,165.9 795.4,175.1 779.6,175.1 779.6,190.9 770.8,190.9 770.8,391.7 
		760.8,391.7 760.8,144.8 714.4,144.8 714.4,391.7 707.6,391.7 707.6,259.4 647.9,259.4 647.9,391.7 644.7,391.7 644.7,44.8 
		585,44.8 585,391.7 568.6,391.7 568.6,133.6 508.9,73.1 508.9,242.3 492.4,242.3 492.4,205.4 453.4,205.4 453.4,391.7 374.4,391.7 
		374.4,103.4 312.2,103.4 312.2,391.7 245,391.7 245,0 182.8,0 182.8,210.7 162.9,210.7 162.9,160.6 100.7,160.6 100.7,259.4 
		80.7,259.4 80.7,391.7 63.1,391.7 63.1,144.8 3.4,144.8 3.4,597.1 1095.6,597.1 1095.6,391.7 	"/>
</g>
</svg>
